<svg width="210px" height="23px" viewBox="0 0 210 23" version="1.1" xmlns="http://www.w3.org/2000/svg" xmlns:xlink="http://www.w3.org/1999/xlink">
    <g id="Page-1" stroke="none" stroke-width="1" fill="none" fill-rule="evenodd">
        <path d="M8.9735,0.765 C10.9575099,0.765 12.6831593,1.4883261 14.1505,2.935 C14.1298332,2.87299969 14.1195,2.76966739 14.1195,2.625 C14.1195,1.46766088 14.7394938,0.889 15.9795,0.889 C16.5581696,0.889 17.0283315,1.06983152 17.39,1.4315 C17.7516685,1.79316848 17.9325,2.26333044 17.9325,2.842 C17.9325,3.11066801 17.9015003,3.50333075 17.8395,4.02 C17.7361662,4.86733757 17.6845,5.47699814 17.6845,5.849 C17.6845,6.11766801 17.7206663,6.51549737 17.793,7.0425 C17.8653337,7.56950263 17.9015,7.96733199 17.9015,8.236 C17.9015,8.87666987 17.6690023,9.39333137 17.204,9.786 C16.7389977,10.1786686 16.1345037,10.375 15.3905,10.375 C13.8198255,10.375 13.0551665,9.72400651 13.0965,8.422 L13.1275,7.461 C13.1481668,6.77899659 12.8691696,6.21583555 12.2905,5.7715 C11.7118304,5.32716445 10.9781711,5.105 10.0895,5.105 C7.32015282,5.105 5.9355,7.29564476 5.9355,11.677 C5.9355,13.9503447 6.27132998,15.6088281 6.943,16.6525 C7.61467003,17.6961719 8.68415933,18.218 10.1515,18.218 C11.0608379,18.218 11.8048304,18.0061688 12.3835,17.5825 C12.9621696,17.1588312 13.2411668,16.6060034 13.2205,15.924 L13.1895,14.808 C13.1688332,14.1673301 13.3754978,13.6506686 13.8095,13.258 C14.2435022,12.8653314 14.8014966,12.669 15.4835,12.669 C16.3515043,12.669 17.0386641,12.9583304 17.545,13.537 C18.0513359,14.1156696 18.3045,14.900995 18.3045,15.893 C18.3045,17.8563432 17.5243411,19.4631604 15.964,20.7135 C14.4036589,21.9638396 12.3938456,22.589 9.9345,22.589 C6.91715158,22.589 4.53534207,21.6280096 2.789,19.706 C1.04265794,17.7839904 0.1695,15.15935 0.1695,11.832 C0.1695,8.40131618 0.95482548,5.69917653 2.5255,3.7255 C4.09617452,1.75182347 6.24548636,0.765 8.9735,0.765 Z M27.8525,22.527 C25.2898205,22.527 23.311007,21.8036739 21.916,20.357 C20.520993,18.9103261 19.8235,16.8746798 19.8235,14.25 C19.8235,11.645987 20.5158264,9.61550728 21.9005,8.1585 C23.2851736,6.70149271 25.2278208,5.973 27.7285,5.973 C30.1878456,5.973 32.1253263,6.6963261 33.541,8.143 C34.9566737,9.5896739 35.6645,11.5736541 35.6645,14.095 C35.6645,16.7403466 34.9773402,18.8069926 33.603,20.295 C32.2286598,21.7830074 30.3118456,22.527 27.8525,22.527 Z M27.7285,9.786 C26.8191621,9.786 26.1010026,10.1838294 25.574,10.9795 C25.0469974,11.7751706 24.7835,12.8653264 24.7835,14.25 C24.7835,15.6553404 25.0469974,16.7506627 25.574,17.536 C26.1010026,18.3213373 26.8398286,18.714 27.7905,18.714 C29.7125096,18.714 30.6735,17.2260149 30.6735,14.25 C30.6735,11.2739851 29.6918432,9.786 27.7285,9.786 Z M43.7245,7.368 L43.7245,10.003 C44.0138348,8.94899473 44.3548314,8.17400248 44.7475,7.678 C45.6568379,6.54132765 46.9278252,5.973 48.5605,5.973 C49.6971724,5.973 50.6529961,6.33982966 51.428,7.0735 C52.2030039,7.80717034 52.5905,8.71132796 52.5905,9.786 C52.5905,10.6333376 52.3425025,11.3308306 51.8465,11.8785 C51.3504975,12.4261694 50.7201705,12.7 49.9555,12.7 C49.3768304,12.7 48.886002,12.5140019 48.483,12.142 C48.079998,11.7699981 47.8785,11.315336 47.8785,10.778 C47.8785,10.4886652 48.012832,10.0856693 48.2815,9.569 L48.0955,9.569 C46.7108264,9.569 45.7808357,10.3026593 45.3055,11.77 C44.9334981,12.9480059 44.7475,14.301659 44.7475,15.831 L44.7475,17.009 C44.7475,17.7530037 44.8094994,18.2283323 44.9335,18.435 C45.0161671,18.5590006 45.1608323,18.621 45.3675,18.621 C45.5535009,18.621 45.8118317,18.5796671 46.1425,18.497 C46.4731683,18.4143329 46.7211658,18.373 46.8865,18.373 C47.3411689,18.373 47.7286651,18.5331651 48.049,18.8535 C48.3693349,19.1738349 48.5295,19.5613311 48.5295,20.016 C48.5295,20.6153363 48.328002,21.116498 47.925,21.5195 C47.521998,21.922502 47.0311696,22.124 46.4525,22.124 C46.1424984,22.124 45.5638376,22.0723338 44.7165,21.969 C44.1998308,21.9069997 43.5488373,21.876 42.7635,21.876 C41.9781627,21.876 41.2858363,21.9069997 40.6865,21.969 C39.694495,22.0723338 39.0848345,22.124 38.8575,22.124 C37.5761603,22.124 36.9355,21.4316736 36.9355,20.047 C36.9355,18.8896609 37.431495,18.311 38.4235,18.311 C38.5888342,18.311 38.7748323,18.3471663 38.9815,18.4195 C39.1881677,18.4918337 39.3431662,18.528 39.4465,18.528 C39.7978351,18.528 39.9735,17.9493391 39.9735,16.792 L39.9735,11.77 C39.9735,10.5919941 39.7978351,10.003 39.4465,10.003 C39.3638329,10.003 39.2036679,10.0391663 38.966,10.1115 C38.7283321,10.1838337 38.5475006,10.22 38.4235,10.22 C37.431495,10.22 36.9355,9.65167235 36.9355,8.515 C36.9355,7.8949969 37.1008317,7.38866863 37.4315,6.996 C37.7621683,6.60333137 38.1858308,6.407 38.7025,6.407 C38.9091677,6.407 39.1984981,6.44833292 39.5705,6.531 C39.9425019,6.61366708 40.2938317,6.655 40.6245,6.655 C40.8725012,6.655 41.2341643,6.61366708 41.7095,6.531 C42.1848357,6.44833292 42.5361655,6.407 42.7635,6.407 C43.4041699,6.407 43.7245,6.72733013 43.7245,7.368 Z M61.1465,22.527 C58.5838205,22.527 56.605007,21.8036739 55.21,20.357 C53.814993,18.9103261 53.1175,16.8746798 53.1175,14.25 C53.1175,11.645987 53.8098264,9.61550728 55.1945,8.1585 C56.5791736,6.70149271 58.5218208,5.973 61.0225,5.973 C63.4818456,5.973 65.4193263,6.6963261 66.835,8.143 C68.2506737,9.5896739 68.9585,11.5736541 68.9585,14.095 C68.9585,16.7403466 68.2713402,18.8069926 66.897,20.295 C65.5226598,21.7830074 63.6058456,22.527 61.1465,22.527 Z M61.0225,9.786 C60.1131621,9.786 59.3950026,10.1838294 58.868,10.9795 C58.3409974,11.7751706 58.0775,12.8653264 58.0775,14.25 C58.0775,15.6553404 58.3409974,16.7506627 58.868,17.536 C59.3950026,18.3213373 60.1338286,18.714 61.0845,18.714 C63.0065096,18.714 63.9675,17.2260149 63.9675,14.25 C63.9675,11.2739851 62.9858432,9.786 61.0225,9.786 Z M77.0495,7.275 L77.0495,8.763 C78.6408413,6.9029907 80.4388233,5.973 82.4435,5.973 C84.5928441,5.973 86.1118289,6.77899194 87.0005,8.391 C87.4758357,9.2176708 87.7135,10.5196578 87.7135,12.297 L87.7135,16.947 C87.7135,18.0010053 87.9201646,18.528 88.3335,18.528 C88.4368338,18.528 88.5918323,18.4970003 88.7985,18.435 C88.9018338,18.3936665 89.0568323,18.373 89.2635,18.373 C90.1728379,18.373 90.6275,18.910328 90.6275,19.985 C90.6275,21.4110071 90.0075062,22.124 88.7675,22.124 C88.4368317,22.124 87.9408366,22.0826671 87.2795,22 C86.6181634,21.9173329 86.1221683,21.876 85.7915,21.876 C85.2748307,21.876 84.7271696,21.9173329 84.1485,22 C83.5698304,22.0826671 83.0945019,22.124 82.7225,22.124 C81.5031606,22.124 80.8935,21.493673 80.8935,20.233 C80.8935,19.1376612 81.3171624,18.5590003 82.1645,18.497 C82.7225028,18.4556665 83.0015,18.1973357 83.0015,17.722 L83.0015,13.382 C83.0015,12.1833273 82.8465015,11.3411691 82.5365,10.8555 C82.2264985,10.3698309 81.6995037,10.127 80.9555,10.127 C80.1081624,10.127 79.4106694,10.4163304 78.863,10.995 C78.3153306,11.5736696 78.0415,12.3073289 78.0415,13.196 L78.0415,16.42 C78.0415,17.3500047 78.0828329,17.9131657 78.1655,18.1095 C78.2481671,18.3058343 78.4858314,18.4349997 78.8785,18.497 C79.6225037,18.6003338 79.9945,19.1583283 79.9945,20.171 C79.9945,21.473 79.4468388,22.124 78.3515,22.124 C78.0414985,22.124 77.6591689,22.0930003 77.2045,22.031 C76.4398295,21.9276662 75.8715019,21.876 75.4995,21.876 C75.1274981,21.876 74.5746703,21.9173329 73.841,22 C73.1073297,22.0826671 72.5545019,22.124 72.1825,22.124 C70.8804935,22.124 70.2295,21.4316736 70.2295,20.047 C70.2295,18.8896609 70.725495,18.311 71.7175,18.311 C71.8828342,18.311 72.0688323,18.3471663 72.2755,18.4195 C72.4821677,18.4918337 72.6371661,18.528 72.7405,18.528 C73.0918351,18.528 73.2675,17.9493391 73.2675,16.792 L73.2675,11.77 C73.2675,10.5919941 73.0918351,10.003 72.7405,10.003 C72.6578329,10.003 72.4976679,10.0391663 72.26,10.1115 C72.0223321,10.1838337 71.8415006,10.22 71.7175,10.22 C70.725495,10.22 70.2295,9.65167235 70.2295,8.515 C70.2295,7.8949969 70.3999983,7.38866863 70.741,6.996 C71.0820017,6.60333137 71.5314972,6.407 72.0895,6.407 C72.2548342,6.407 72.606164,6.45866615 73.1435,6.562 C73.4535015,6.62400031 73.7221655,6.655 73.9495,6.655 C74.1975012,6.655 74.6211637,6.61366708 75.2205,6.531 C75.8198363,6.44833292 76.1504997,6.407 76.2125,6.407 C76.7705028,6.407 77.0495,6.69633044 77.0495,7.275 Z M105.4455,22.527 C103.750825,22.527 102.61417,21.8450068 102.0355,20.481 C100.588826,21.8450068 98.8735099,22.527 96.8895,22.527 C95.2568252,22.527 93.9548382,22.098171 92.9835,21.2405 C92.0121618,20.382829 91.5265,19.2410071 91.5265,17.815 C91.5265,15.6449892 92.4668239,14.2396699 94.3475,13.599 C95.153504,13.330332 96.0834947,13.1030009 97.1375,12.917 C98.6048407,12.6689988 99.6019974,12.3848349 100.129,12.0645 C100.656003,11.7441651 100.9195,11.2533366 100.9195,10.592 C100.9195,10.1166643 100.718002,9.71883493 100.315,9.3985 C99.911998,9.07816507 99.4108363,8.918 98.8115,8.918 C98.1294966,8.918 97.7885,9.13499783 97.7885,9.569 C97.7885,9.71366739 97.7988332,9.85833261 97.8195,10.003 L97.8195,10.127 C97.8195,10.7056696 97.5766691,11.1913314 97.091,11.584 C96.6053309,11.9766686 96.000837,12.173 95.2775,12.173 C94.4508292,12.173 93.768836,11.9250025 93.2315,11.429 C92.694164,10.9329975 92.4255,10.3130037 92.4255,9.569 C92.4255,8.45299442 93.0144941,7.57466987 94.1925,6.934 C95.3705059,6.29333013 96.992823,5.973 99.0595,5.973 C101.291511,5.973 102.955161,6.31399659 104.0505,6.996 C105.228506,7.74000372 105.8175,9.12465654 105.8175,11.15 L105.8175,17.567 C105.8175,18.2283366 105.982832,18.559 106.3135,18.559 C106.478834,18.559 106.633833,18.5486668 106.7785,18.528 C106.8405,18.5073332 106.912833,18.497 106.9955,18.497 C107.470836,18.497 107.873832,18.6623317 108.2045,18.993 C108.535168,19.3236683 108.7005,19.7266643 108.7005,20.202 C108.7005,20.8840034 108.39567,21.4419978 107.786,21.876 C107.17633,22.3100022 106.396171,22.527 105.4455,22.527 Z M100.9505,15.893 L100.9505,15.211 C100.805833,15.2936671 99.8965084,15.5519978 98.2225,15.986 C97.0858276,16.2753348 96.5175,16.7196637 96.5175,17.319 C96.5175,18.2696714 97.0754944,18.745 98.1915,18.745 C100.030843,18.745 100.9505,17.7943428 100.9505,15.893 Z M118.7445,13.909 L118.7445,15.707 L118.7755,16.761 C118.7755,17.0916683 118.8065,17.3499991 118.8685,17.536 C118.971834,17.8873351 119.250831,18.063 119.7055,18.063 C119.932834,18.063 120.263498,18.0268337 120.6975,17.9545 C121.131502,17.8821663 121.462166,17.846 121.6895,17.846 C122.908839,17.846 123.5185,18.5486596 123.5185,19.954 C123.5185,20.6153366 123.306669,21.147498 122.883,21.5505 C122.459331,21.953502 121.89617,22.155 121.1935,22.155 C120.656164,22.155 119.855339,22.1033338 118.791,22 C117.726661,21.8966662 116.925836,21.845 116.3885,21.845 C115.334495,21.845 114.497503,21.8759997 113.8775,21.938 C112.451493,22.0826674 111.655834,22.155 111.4905,22.155 C110.829163,22.155 110.297002,21.9483354 109.894,21.535 C109.490998,21.1216646 109.2895,20.5740034 109.2895,19.892 C109.2895,19.2926637 109.449665,18.8018352 109.77,18.4195 C110.090335,18.0371648 110.498498,17.846 110.9945,17.846 C111.159834,17.846 111.407832,17.8821663 111.7385,17.9545 C112.069168,18.0268337 112.306833,18.063 112.4515,18.063 C112.864835,18.063 113.123166,17.794336 113.2265,17.257 C113.267834,17.0503323 113.2885,16.6163366 113.2885,15.955 L113.2885,7.368 C113.2885,6.70666336 113.267834,6.28300093 113.2265,6.097 C113.123166,5.55966398 112.864835,5.291 112.4515,5.291 C112.286166,5.291 112.043335,5.3271663 111.723,5.3995 C111.402665,5.4718337 111.149501,5.508 110.9635,5.508 C110.488164,5.508 110.090335,5.31166863 109.77,4.919 C109.449665,4.52633137 109.2895,4.04066956 109.2895,3.462 C109.2895,1.95332579 110.054159,1.199 111.5835,1.199 C112.058836,1.199 112.823495,1.24033292 113.8775,1.323 C115.468841,1.44700062 116.770828,1.509 117.7835,1.509 C118.48617,1.509 119.271496,1.49866677 120.1395,1.478 C120.71817,1.45733323 121.875491,1.43666677 123.6115,1.416 C124.31417,1.416 125.171828,1.39533354 126.1845,1.354 L128.0445,1.199 C128.292501,1.17833323 128.395834,1.168 128.3545,1.168 C129.387839,1.168 129.9045,1.62266212 129.9045,2.532 C129.9045,2.90400186 129.863167,3.31733106 129.7805,3.772 C129.656499,4.45400341 129.5945,5.01199783 129.5945,5.446 C129.5945,5.77666832 129.651333,6.26233013 129.765,6.903 C129.878667,7.54366987 129.9355,8.02933168 129.9355,8.36 C129.9355,9.08333695 129.718502,9.67233106 129.2845,10.127 C128.850498,10.5816689 128.28217,10.809 127.5795,10.809 C126.87683,10.809 126.324002,10.5816689 125.921,10.127 C125.517998,9.67233106 125.3165,9.06267049 125.3165,8.298 C125.3165,8.07066553 125.357833,7.67800279 125.4405,7.12 C125.5025,6.7066646 125.5335,6.38633447 125.5335,6.159 C125.5335,5.45632982 125.016839,5.105 123.9835,5.105 L120.6045,5.105 C119.798496,5.105 119.287001,5.20316569 119.07,5.3995 C118.852999,5.59583431 118.7445,6.12799566 118.7445,6.996 L118.7445,8.453 C118.7445,9.09366987 119.023497,9.414 119.5815,9.414 C120.449504,9.414 120.8835,9.11433633 120.8835,8.515 C120.8835,8.45299969 120.862834,8.25666832 120.8215,7.926 L120.8215,7.678 C120.800833,7.57466615 120.7905,7.50233354 120.7905,7.461 C120.7905,6.65499597 121.276162,6.252 122.2475,6.252 C123.384172,6.252 123.9525,6.78932796 123.9525,7.864 C123.9525,8.0706677 123.931834,8.40133106 123.8905,8.856 C123.849166,9.31066894 123.8285,9.89966305 123.8285,10.623 C123.8285,11.0363354 123.869833,11.6614958 123.9525,12.4985 C124.035167,13.3355042 124.0765,13.9606646 124.0765,14.374 C124.0765,15.634673 123.539172,16.265 122.4645,16.265 C121.369161,16.265 120.8215,15.6863391 120.8215,14.529 C120.8215,14.4876665 120.831833,14.4256671 120.8525,14.343 L120.8525,13.847 C120.8525,13.3303308 120.459837,13.072 119.6745,13.072 C119.281831,13.072 119.028667,13.1236661 118.915,13.227 C118.801333,13.3303339 118.7445,13.5576649 118.7445,13.909 Z M139.0495,22.527 C136.486821,22.527 134.508007,21.8036739 133.113,20.357 C131.717993,18.9103261 131.0205,16.8746798 131.0205,14.25 C131.0205,11.645987 131.712826,9.61550728 133.0975,8.1585 C134.482174,6.70149271 136.424821,5.973 138.9255,5.973 C141.384846,5.973 143.322326,6.6963261 144.738,8.143 C146.153674,9.5896739 146.8615,11.5736541 146.8615,14.095 C146.8615,16.7403466 146.17434,18.8069926 144.8,20.295 C143.42566,21.7830074 141.508846,22.527 139.0495,22.527 Z M138.9255,9.786 C138.016162,9.786 137.298003,10.1838294 136.771,10.9795 C136.243997,11.7751706 135.9805,12.8653264 135.9805,14.25 C135.9805,15.6553404 136.243997,16.7506627 136.771,17.536 C137.298003,18.3213373 138.036829,18.714 138.9875,18.714 C140.90951,18.714 141.8705,17.2260149 141.8705,14.25 C141.8705,11.2739851 140.888843,9.786 138.9255,9.786 Z M154.9215,7.368 L154.9215,10.003 C155.210835,8.94899473 155.551831,8.17400248 155.9445,7.678 C156.853838,6.54132765 158.124825,5.973 159.7575,5.973 C160.894172,5.973 161.849996,6.33982966 162.625,7.0735 C163.400004,7.80717034 163.7875,8.71132796 163.7875,9.786 C163.7875,10.6333376 163.539502,11.3308306 163.0435,11.8785 C162.547498,12.4261694 161.91717,12.7 161.1525,12.7 C160.57383,12.7 160.083002,12.5140019 159.68,12.142 C159.276998,11.7699981 159.0755,11.315336 159.0755,10.778 C159.0755,10.4886652 159.209832,10.0856693 159.4785,9.569 L159.2925,9.569 C157.907826,9.569 156.977836,10.3026593 156.5025,11.77 C156.130498,12.9480059 155.9445,14.301659 155.9445,15.831 L155.9445,17.009 C155.9445,17.7530037 156.006499,18.2283323 156.1305,18.435 C156.213167,18.5590006 156.357832,18.621 156.5645,18.621 C156.750501,18.621 157.008832,18.5796671 157.3395,18.497 C157.670168,18.4143329 157.918166,18.373 158.0835,18.373 C158.538169,18.373 158.925665,18.5331651 159.246,18.8535 C159.566335,19.1738349 159.7265,19.5613311 159.7265,20.016 C159.7265,20.6153363 159.525002,21.116498 159.122,21.5195 C158.718998,21.922502 158.22817,22.124 157.6495,22.124 C157.339498,22.124 156.760838,22.0723338 155.9135,21.969 C155.396831,21.9069997 154.745837,21.876 153.9605,21.876 C153.175163,21.876 152.482836,21.9069997 151.8835,21.969 C150.891495,22.0723338 150.281834,22.124 150.0545,22.124 C148.77316,22.124 148.1325,21.4316736 148.1325,20.047 C148.1325,18.8896609 148.628495,18.311 149.6205,18.311 C149.785834,18.311 149.971832,18.3471663 150.1785,18.4195 C150.385168,18.4918337 150.540166,18.528 150.6435,18.528 C150.994835,18.528 151.1705,17.9493391 151.1705,16.792 L151.1705,11.77 C151.1705,10.5919941 150.994835,10.003 150.6435,10.003 C150.560833,10.003 150.400668,10.0391663 150.163,10.1115 C149.925332,10.1838337 149.744501,10.22 149.6205,10.22 C148.628495,10.22 148.1325,9.65167235 148.1325,8.515 C148.1325,7.8949969 148.297832,7.38866863 148.6285,6.996 C148.959168,6.60333137 149.382831,6.407 149.8995,6.407 C150.106168,6.407 150.395498,6.44833292 150.7675,6.531 C151.139502,6.61366708 151.490832,6.655 151.8215,6.655 C152.069501,6.655 152.431164,6.61366708 152.9065,6.531 C153.381836,6.44833292 153.733166,6.407 153.9605,6.407 C154.60117,6.407 154.9215,6.72733013 154.9215,7.368 Z M171.3205,7.337 L171.3205,8.763 C172.870508,6.9029907 174.596157,5.973 176.4975,5.973 C178.088841,5.973 179.401162,6.74799225 180.4345,8.298 C181.467839,7.40932889 182.35133,6.79966832 183.085,6.469 C183.81867,6.13833168 184.671162,5.973 185.6425,5.973 C187.605843,5.973 189.073162,6.62399349 190.0445,7.926 C190.705837,8.81467111 191.0365,10.2406569 191.0365,12.204 L191.0365,16.947 C191.0365,18.0010053 191.232831,18.528 191.6255,18.528 C191.749501,18.528 191.914832,18.4970003 192.1215,18.435 C192.224834,18.3936665 192.379832,18.373 192.5865,18.373 C193.495838,18.373 193.9505,18.910328 193.9505,19.985 C193.9505,20.6256699 193.785168,21.1423314 193.4545,21.535 C193.123832,21.9276686 192.689836,22.124 192.1525,22.124 C192.0905,22.124 191.790836,22.0930003 191.2535,22.031 L190.5715,21.938 C190.240832,21.8966665 189.806836,21.876 189.2695,21.876 C188.608163,21.876 187.967503,21.9173329 187.3475,22 C186.727497,22.0826671 186.293501,22.124 186.0455,22.124 C185.549498,22.124 185.141335,21.9328352 184.821,21.5505 C184.500665,21.1681648 184.3405,20.6876696 184.3405,20.109 C184.3405,19.1583286 184.72283,18.6106674 185.4875,18.466 C185.880169,18.4039997 186.112666,18.2903342 186.185,18.125 C186.257334,17.9596658 186.2935,17.5050037 186.2935,16.761 L186.2935,13.568 C186.2935,12.2453267 186.154001,11.3411691 185.875,10.8555 C185.595999,10.3698309 185.063837,10.127 184.2785,10.127 C182.521825,10.127 181.6435,11.3773208 181.6435,13.878 L181.6435,16.761 C181.6435,17.4636702 181.6745,17.9079991 181.7365,18.094 C181.7985,18.2800009 181.963832,18.4039997 182.2325,18.466 C182.87317,18.6106674 183.1935,19.1273289 183.1935,20.016 C183.1935,21.4213404 182.614839,22.124 181.4575,22.124 C181.230166,22.124 180.909835,22.0930003 180.4965,22.031 C179.814497,21.9276662 179.359834,21.876 179.1325,21.876 C178.884499,21.876 178.517669,21.9173329 178.032,22 C177.546331,22.0826671 177.179501,22.124 176.9315,22.124 C175.918828,22.124 175.4125,21.473 175.4125,20.171 C175.4125,19.2409953 175.73283,18.6933342 176.3735,18.528 C176.724835,18.4453329 176.910833,18.1973354 176.9315,17.784 C176.952167,17.2259972 176.9625,16.8850006 176.9625,16.761 L176.9625,13.258 C176.9625,12.0799941 176.823001,11.2636689 176.544,10.809 C176.264999,10.3543311 175.763837,10.127 175.0405,10.127 C173.221824,10.127 172.3125,11.3773208 172.3125,13.878 L172.3125,17.629 C172.3125,17.9596683 172.353833,18.1714995 172.4365,18.2645 C172.519167,18.3575005 172.725832,18.4349997 173.0565,18.497 C173.862504,18.6416674 174.2655,19.1789954 174.2655,20.109 C174.2655,21.4523401 173.697172,22.124 172.5605,22.124 C172.209165,22.124 171.687337,22.0826671 170.995,22 C170.302663,21.9173329 169.780835,21.876 169.4295,21.876 C168.954164,21.876 168.468502,21.9069997 167.9725,21.969 C167.145829,22.0723338 166.618834,22.124 166.3915,22.124 C165.81283,22.124 165.353002,21.9328352 165.012,21.5505 C164.670998,21.1681648 164.5005,20.6773363 164.5005,20.078 C164.5005,18.8999941 164.996495,18.311 165.9885,18.311 C166.153834,18.311 166.339832,18.3471663 166.5465,18.4195 C166.753168,18.4918337 166.908166,18.528 167.0115,18.528 C167.362835,18.528 167.5385,17.9493391 167.5385,16.792 L167.5385,11.77 C167.5385,10.5919941 167.362835,10.003 167.0115,10.003 C166.928833,10.003 166.768668,10.0391663 166.531,10.1115 C166.293332,10.1838337 166.112501,10.22 165.9885,10.22 C164.996495,10.22 164.5005,9.64133912 164.5005,8.484 C164.5005,7.88466367 164.670998,7.38866863 165.012,6.996 C165.353002,6.60333137 165.802497,6.407 166.3605,6.407 C166.484501,6.407 166.825497,6.45866615 167.3835,6.562 C167.714168,6.62400031 168.024165,6.655 168.3135,6.655 C168.561501,6.655 168.928331,6.61366708 169.414,6.531 C169.899669,6.44833292 170.266499,6.407 170.5145,6.407 C171.051836,6.407 171.3205,6.7169969 171.3205,7.337 Z M200.9565,5.973 C202.547841,5.973 203.891161,6.41732889 204.9865,7.306 C205.069167,6.43799566 205.627161,6.004 206.6605,6.004 C207.714505,6.004 208.2415,6.37599628 208.2415,7.12 C208.2415,7.36800124 208.200167,7.64699845 208.1175,7.957 C208.0555,8.32900186 208.0245,8.68033168 208.0245,9.011 C208.0245,9.07300031 208.034833,9.23833199 208.0555,9.507 L208.0555,10.344 C208.0555,11.4393388 207.507839,11.987 206.4125,11.987 C205.627163,11.987 204.94517,11.5943373 204.3665,10.809 C203.66383,9.85832858 202.806172,9.383 201.7935,9.383 C200.594827,9.383 199.9955,9.7963292 199.9955,10.623 C199.9955,11.0570022 200.191831,11.3618325 200.5845,11.5375 C200.977169,11.7131675 202.010492,11.9456652 203.6845,12.235 C205.048507,12.4830012 206.055997,12.7619985 206.707,13.072 C207.358003,13.3820015 207.890165,13.8263304 208.3035,14.405 C208.820169,15.1490037 209.0785,16.016995 209.0785,17.009 C209.0785,18.5796745 208.474006,19.8919947 207.265,20.946 C206.055994,22.0000053 204.542176,22.527 202.7235,22.527 C200.904824,22.527 199.251507,21.9483391 197.7635,20.791 C197.7635,21.8036717 197.246839,22.31 196.2135,22.31 C195.097494,22.31 194.5395,21.8553379 194.5395,20.946 C194.5395,20.7393323 194.560166,20.4190022 194.6015,19.985 C194.642834,19.5509978 194.6635,19.2306677 194.6635,19.024 C194.6635,18.8379991 194.648,18.5590019 194.617,18.187 C194.586,17.8149981 194.5705,17.5360009 194.5705,17.35 C194.5705,16.4199954 195.149161,15.955 196.3065,15.955 C196.864503,15.955 197.288165,16.0376658 197.5775,16.203 C197.866835,16.3683342 198.176832,16.6886643 198.5075,17.164 C199.024169,17.9286705 199.499498,18.4298321 199.9335,18.6675 C200.367502,18.9051679 201.008162,19.024 201.8555,19.024 C203.343507,19.024 204.0875,18.5590047 204.0875,17.629 C204.0875,16.9883301 203.488173,16.5440012 202.2895,16.296 L200.4915,15.924 C199.024159,15.6139984 197.98567,15.3040015 197.376,14.994 C196.76633,14.6839985 196.285835,14.19317 195.9345,13.5215 C195.583165,12.84983 195.4075,12.0800043 195.4075,11.212 C195.4075,9.66199225 195.918995,8.40133819 196.942,7.43 C197.965005,6.45866181 199.303158,5.973 200.9565,5.973 Z" id="CoronaForms" fill="#000000" fill-rule="nonzero"></path>
    </g>
</svg>